<?xml version="1.0" encoding="UTF-8"?>
<svg version="1.1" xmlns="http://www.w3.org/2000/svg" width="256" height="256">
<path d="M0 0 C1.86186223 0.80584742 3.69682959 1.67537017 5.5078125 2.58984375 C6.56846924 3.12222656 7.62912598 3.65460937 8.72192383 4.203125 C10.40644653 5.06164062 10.40644653 5.06164062 12.125 5.9375 C13.27830811 6.52144531 14.43161621 7.10539063 15.61987305 7.70703125 C17.96525429 8.89751083 20.3089342 10.09134834 22.65087891 11.28857422 C25.68333511 12.83818189 28.72194058 14.37498516 31.76171875 15.91015625 C33.44596921 16.77215557 35.12960729 17.63535293 36.8125 18.5 C37.5751416 18.88406006 38.3377832 19.26812012 39.12353516 19.66381836 C46.61520784 23.56477238 50.49000296 28.14802007 53.8125 35.8125 C54.27946289 36.85180664 54.27946289 36.85180664 54.75585938 37.91210938 C55.5140891 39.60354491 56.25849616 41.30116554 57 43 C50.73151441 41.05667202 44.83321689 38.68343082 38.90625 35.875 C37.65890076 35.29274658 37.65890076 35.29274658 36.38635254 34.69873047 C32.86986489 33.05707581 29.35877406 31.40401739 25.84716797 29.75195312 C23.26454731 28.53896936 20.67922662 27.3318814 18.09375 26.125 C17.31535767 25.75616699 16.53696533 25.38733398 15.73498535 25.00732422 C10.59612472 22.60946487 5.41599444 20.67904247 0 19 C-0.94359375 19.96099609 -0.94359375 19.96099609 -1.90625 20.94140625 C-6.48492422 25.56834962 -11.10124248 30.04284601 -16.05078125 34.26953125 C-18.9162443 36.81341929 -21.57338554 39.54939805 -24.23828125 42.30078125 C-26 44 -26 44 -29 46 C-29.93140384 52.30440014 -30.96281454 60.50449387 -27.734375 66.25390625 C-25.93139527 67.81560379 -25.93139527 67.81560379 -23.75390625 69.1640625 C-19.8927912 71.7381392 -16.71689496 74.91960093 -13.375 78.125 C-11.5109093 79.88920751 -9.64066644 81.64489889 -7.75292969 83.38378906 C-6.61462871 84.43330891 -5.48930675 85.49714864 -4.37988281 86.57714844 C-2.70888797 88.18723261 -2.70888797 88.18723261 0 90 C4.53537909 89.66077492 8.48607804 87.55837397 12.546875 85.6484375 C13.27634338 85.31131744 14.00581177 84.97419739 14.75738525 84.62686157 C17.09064542 83.54797325 19.42057049 82.46213156 21.75 81.375 C33.39020631 75.95350002 45.08431088 70.78934315 57 66 C55.64205668 73.177484 53.22603386 80.47940599 47.43798828 85.30126953 C43.25913892 88.1039141 38.72292887 90.23646062 34.19921875 92.41845703 C30.29868326 94.34669794 26.46453858 96.38732834 22.625 98.43359375 C20.37813714 99.62288177 18.13015008 100.81000819 15.88153076 101.99597168 C14.37963181 102.78902763 12.87901327 103.5845133 11.37969971 104.38244629 C9.25152719 105.51082005 7.11545363 106.62257709 4.9765625 107.73046875 C4.33243408 108.07573105 3.68830566 108.42099335 3.0246582 108.77671814 C-1.39492755 111.03852221 -1.39492755 111.03852221 -4.21264648 110.85913086 C-6.18886744 109.9092167 -7.83142105 108.8566813 -9.57421875 107.5234375 C-10.23808594 107.02038086 -10.90195313 106.51732422 -11.5859375 105.99902344 C-12.27945313 105.4630957 -12.97296875 104.92716797 -13.6875 104.375 C-14.39777344 103.83391602 -15.10804688 103.29283203 -15.83984375 102.73535156 C-17.89874988 101.16393279 -19.95060195 99.58379056 -22 98 C-23.00675781 97.22398438 -24.01351562 96.44796875 -25.05078125 95.6484375 C-27.04000906 94.106548 -29.02403014 92.55882066 -31 91 C-33.6905528 92.22007944 -33.6905528 92.22007944 -36 94 C-52.01694915 92.98305085 -52.01694915 92.98305085 -56 89 C-56.08685603 87.43827255 -56.10702219 85.87270656 -56.09765625 84.30859375 C-56.09515869 83.45837646 -56.09266113 82.60815918 -56.09008789 81.73217773 C-56.08098389 80.64493408 -56.07187988 79.55769043 -56.0625 78.4375 C-56.041875 74.993125 -56.02125 71.54875 -56 68 C-64.25 68 -72.5 68 -81 68 C-81.66 69.98 -82.32 71.96 -83 74 C-83.43900635 74.79204834 -83.8780127 75.58409668 -84.33032227 76.40014648 C-85.35659249 80.38437965 -83.52773496 83.12646281 -81.71484375 86.59765625 C-81.34798462 87.33536758 -80.98112549 88.07307892 -80.60314941 88.83314514 C-79.39697319 91.25116476 -78.16705336 93.65629643 -76.9375 96.0625 C-75.66869357 98.59495099 -74.40641276 101.13058832 -73.14430237 103.66638184 C-72.29661711 105.36833532 -71.44686707 107.06926194 -70.59507751 108.76916504 C-67.06363348 115.82424008 -63.71573705 122.94837635 -60.4375 130.125 C-55.25498982 141.40788562 -49.86104727 152.57705811 -44.40930176 163.73162842 C-38.82726069 175.15749641 -33.38777886 186.63961155 -28.109375 198.20898438 C-27.16521306 200.26886022 -26.20958258 202.32354058 -25.23950195 204.37133789 C-24.48478657 205.97189343 -23.75692054 207.58595485 -23.07885742 209.22045898 C-21.87759473 211.82944612 -20.7277344 213.65671678 -18.08813477 214.90185547 C-15.71574121 215.60308853 -13.36958813 216.11112577 -10.9375 216.5625 C-2.77688743 218.16819138 2.25445945 220.7751597 10 225 C10 234.57 10 244.14 10 254 C-37.52 254 -85.04 254 -134 254 C-134 244.43 -134 234.86 -134 225 C-114.94339623 215 -114.94339623 215 -105 215 C-110.75511928 191.59478906 -116.83831151 168.28486663 -123.05096436 144.99737549 C-123.99310375 141.46301599 -124.93245798 137.92791871 -125.87179184 134.39281273 C-126.79221572 130.92980765 -127.7139812 127.46716081 -128.63617706 124.00462723 C-129.06859911 122.38070639 -129.50071468 120.7567039 -129.93248749 119.13261032 C-130.91277418 115.44714328 -131.8985543 111.7634052 -132.89929199 108.08343506 C-133.63612044 105.37347037 -134.34203105 102.65802106 -135.02746582 99.93463135 C-135.35516968 98.68341492 -135.68287354 97.43219849 -136.02050781 96.14306641 C-136.29856262 95.04604401 -136.57661743 93.94902161 -136.86309814 92.8187561 C-138.51829636 88.71497173 -141.14540665 86.99511468 -144.75390625 84.625 C-148.62006283 81.82791976 -150.74113434 78.13324354 -153 74 C-153.41378906 73.28585938 -153.82757813 72.57171875 -154.25390625 71.8359375 C-158.85139877 62.51279935 -158.59224633 49.81526114 -155.5625 40 C-151.67978755 31.06838938 -143.1541196 22.01230871 -134.07788086 18.19067383 C-128.50899738 16.14160172 -123.47354953 15.4860692 -117.5625 15.5625 C-116.31364014 15.57494751 -116.31364014 15.57494751 -115.03955078 15.58764648 C-104.46631485 15.87818817 -96.59576888 19.59303608 -89 27 C-85.06124867 31.84120613 -82.99419325 36.01742024 -81 42 C-72.75 42 -64.5 42 -56 42 C-56 35.07 -56 28.14 -56 21 C-46.21582734 17.33093525 -46.21582734 17.33093525 -41.75 16.0625 C-40.75484375 15.76472656 -39.7596875 15.46695312 -38.734375 15.16015625 C-36 15 -36 15 -33.640625 16.93359375 C-33.09921875 17.61550781 -32.5578125 18.29742188 -32 19 C-28.99956731 16.79225409 -25.999735 14.58369377 -23 12.375 C-21.74123047 11.44880859 -21.74123047 11.44880859 -20.45703125 10.50390625 C-19.62558594 9.89160156 -18.79414063 9.27929688 -17.9375 8.6484375 C-17.10734375 8.04225586 -16.2771875 7.43607422 -15.421875 6.81152344 C-13.84323422 5.63072559 -12.28911207 4.4161895 -10.765625 3.16503906 C-10.07984375 2.6078418 -9.3940625 2.05064453 -8.6875 1.4765625 C-8.09324219 0.97463379 -7.49898437 0.47270508 -6.88671875 -0.04443359 C-4.2025885 -1.40386499 -2.83849933 -0.88686533 0 0 Z M-129 48 C-130.86954687 51.73909374 -130.53707773 55.9282014 -130 60 C-128.55730532 63.31684945 -126.42963975 65.3031254 -123.1328125 66.91015625 C-119.28311679 68.16093287 -117.21910778 68.06208054 -113.25 66.9375 C-108.84184994 64.30956438 -106.6595033 62.02247678 -105.0625 57.125 C-104.95922167 51.96108344 -106.76681047 48.45740581 -110.0625 44.5625 C-117.31145358 40.70667363 -123.59767662 42.18211329 -129 48 Z " fill="#6565FF" transform="translate(178,2)"/>
</svg>
